<svg aria-hidden="true" style="position: absolute; width: 0; height: 0; overflow: hidden;" version="1.1" xmlns="http://www.w3.org/2000/svg" xmlns:xlink="http://www.w3.org/1999/xlink">
<defs>
<symbol id="icon-grade" viewBox="0 0 32 32">
<title>grade</title>
<path d="M16 23.027l8.24 4.973-2.187-9.373 7.28-6.307-9.587-0.813-3.747-8.84-3.747 8.84-9.587 0.813 7.28 6.307-2.187 9.373z"></path>
</symbol>
<symbol id="icon-subscriptions" viewBox="0 0 32 32">
<title>subscriptions</title>
<path d="M26.667 10.667h-21.333v-2.667h21.333v2.667zM24 2.667h-16v2.667h16v-2.667zM29.333 16v10.667c0 1.467-1.2 2.667-2.667 2.667h-21.333c-1.467 0-2.667-1.2-2.667-2.667v-10.667c0-1.467 1.2-2.667 2.667-2.667h21.333c1.467 0 2.667 1.2 2.667 2.667zM21.333 21.333l-8-4.36v8.707l8-4.347z"></path>
</symbol>
<symbol id="icon-add_to_queue" viewBox="0 0 32 32">
<title>add_to_queue</title>
<path d="M28 4h-24c-1.48 0-2.667 1.187-2.667 2.667v16c0 1.467 1.187 2.667 2.667 2.667h6.667v2.667h10.667v-2.667h6.667c1.467 0 2.653-1.2 2.653-2.667l0.013-16c0-1.48-1.2-2.667-2.667-2.667zM28 22.667h-24v-16h24v16zM21.333 13.333v2.667h-4v4h-2.667v-4h-4v-2.667h4v-4h2.667v4h4z"></path>
</symbol>
<symbol id="icon-videocam" viewBox="0 0 32 32">
<title>videocam</title>
<path d="M22.667 14v-4.667c0-0.733-0.6-1.333-1.333-1.333h-16c-0.733 0-1.333 0.6-1.333 1.333v13.333c0 0.733 0.6 1.333 1.333 1.333h16c0.733 0 1.333-0.6 1.333-1.333v-4.667l5.333 5.333v-14.667l-5.333 5.333z"></path>
</symbol>
<symbol id="icon-movie" viewBox="0 0 32 32">
<title>movie</title>
<path d="M24 5.333l2.667 5.333h-4l-2.667-5.333h-2.667l2.667 5.333h-4l-2.667-5.333h-2.667l2.667 5.333h-4l-2.667-5.333h-1.333c-1.467 0-2.653 1.2-2.653 2.667l-0.013 16c0 1.467 1.2 2.667 2.667 2.667h21.333c1.467 0 2.667-1.2 2.667-2.667v-18.667h-5.333z"></path>
</symbol>
<symbol id="icon-mic" viewBox="0 0 32 32">
<title>mic</title>
<path d="M16 18.667c2.213 0 3.987-1.787 3.987-4l0.013-8c0-2.213-1.787-4-4-4s-4 1.787-4 4v8c0 2.213 1.787 4 4 4zM23.067 14.667c0 4-3.387 6.8-7.067 6.8s-7.067-2.8-7.067-6.8h-2.267c0 4.547 3.627 8.307 8 8.96v4.373h2.667v-4.373c4.373-0.64 8-4.4 8-8.96h-2.267z"></path>
</symbol>
<symbol id="icon-thumb_up" viewBox="0 0 32 32">
<title>thumb_up</title>
<path d="M1.333 28h5.333v-16h-5.333v16zM30.667 13.333c0-1.467-1.2-2.667-2.667-2.667h-8.413l1.267-6.093 0.040-0.427c0-0.547-0.227-1.053-0.587-1.413l-1.413-1.4-8.773 8.787c-0.493 0.48-0.787 1.147-0.787 1.88v13.333c0 1.467 1.2 2.667 2.667 2.667h12c1.107 0 2.053-0.667 2.453-1.627l4.027-9.4c0.12-0.307 0.187-0.627 0.187-0.973v-2.547l-0.013-0.013 0.013-0.107z"></path>
</symbol>
<symbol id="icon-favorite" viewBox="0 0 32 32">
<title>favorite</title>
<path d="M16 28.467l-1.933-1.76c-6.867-6.227-11.4-10.333-11.4-15.373 0-4.107 3.227-7.333 7.333-7.333 2.32 0 4.547 1.080 6 2.787 1.453-1.707 3.68-2.787 6-2.787 4.107 0 7.333 3.227 7.333 7.333 0 5.040-4.533 9.147-11.4 15.387l-1.933 1.747z"></path>
</symbol>
<symbol id="icon-logo" viewBox="0 0 32 32">
<title>logo</title>
<path fill="#000" style="fill: var(--color1, #000)" d="M15.599 21.391c0-5.331-0.124-10.664-0.14-15.994 0-0.413-0.063-0.903-0.587-1.156-0.025-0.012-0.054-0.019-0.085-0.019s-0.060 0.007-0.086 0.019l0.001-0.001c-1.115 0.526-1.865 1-2.962 1.558-0.14 0.084-0.31 0.134-0.491 0.134-0.245 0-0.468-0.091-0.639-0.241l0.001 0.001c-1.355-0.948-2.822-1.754-4.087-2.809-1.341-1.118-2.797-1.289-4.473-1.129-0.106 0.012-0.188 0.101-0.188 0.209 0 0.060 0.025 0.114 0.066 0.152l0 0c0.817 0.759 1.58 1.479 2.364 2.172 0.312 0.262 0.525 0.632 0.579 1.053l0.001 0.008c0.226 1.427 0.587 2.834 0.772 4.265 0.12 0.903 0.497 1.506 1.291 1.885 0.537 0.255 0.542 0.528 0.156 0.987-0.637 0.745-1.208 1.538-1.863 2.416-0.027 0.035-0.043 0.079-0.043 0.126 0 0.115 0.093 0.208 0.208 0.208 0 0 0 0 0 0h1.499c0.114 0.001 0.207 0.093 0.207 0.208 0 0.014-0.001 0.027-0.004 0.040l0-0.001c-0.287 1.63-0.564 3.215-0.858 4.875-0.001 0.008-0.002 0.017-0.002 0.027 0 0.116 0.094 0.21 0.21 0.21 0.024 0 0.047-0.004 0.069-0.012l-0.001 0c0.723-0.255 1.355-0.472 1.982-0.725 0.402-0.165 0.587-0.104 0.716 0.334 0.149 0.513 0.357 1.007 0.571 1.56 0.033 0.078 0.108 0.132 0.196 0.132 0.053 0 0.101-0.019 0.138-0.051l-0 0 1.377-1.208c0.036-0.031 0.084-0.050 0.136-0.050 0.081 0 0.151 0.046 0.186 0.112l0.001 0.001 1.617 3.066c0.036 0.066 0.105 0.11 0.185 0.11 0.062 0 0.118-0.027 0.156-0.069l0-0 0.409-0.452c0.039-0.045 0.096-0.073 0.159-0.073s0.12 0.028 0.159 0.073l0 0 0.506 0.7c0.038 0.048 0.096 0.078 0.161 0.078 0.023 0 0.045-0.004 0.066-0.011l-0.001 0c0.309-0.129 0.327-0.452 0.343-0.734 0.043-0.662 0.020-1.325 0.020-1.987zM10.878 10.302c1.027 1.648 2.987 2.233 3.346 4.222-2.339-0.406-3.104-1.953-3.346-4.222z"></path>
<path fill="#000" style="fill: var(--color1, #000)" d="M16.608 4.337l5.173 2.127-1.328 0.115c1.73 1.653 3.969 2.28 5.94 3.439-0.452 0.3-0.822-0.014-1.201-0.036-0.271-0.040-0.583-0.063-0.901-0.063-0.16 0-0.318 0.006-0.474 0.017l0.021-0.001 6.295 5.358-5.383-1.635c0.312 1.553 0.612 3.044 0.953 4.741l-2.526-2.802v5.030c-0.587-0.939-1.174-1.874-1.779-2.845-0.395 0.605-0.138 1.3-0.404 1.806l-2.757-2.54c-0.282 2.432-1.041 4.531-1.58 6.823-0.452-0.068-0.363-0.375-0.366-0.643q-0.014-9.178 0-18.358c0.002-0.242 0.124-0.354 0.318-0.533z"></path>
<path fill="#000" style="fill: var(--color1, #000)" d="M10.269 28.489c0 0.562-0.023 0.865 0 1.163 0.045 0.472-0.253 0.433-0.569 0.452-0.359 0.018-0.553-0.045-0.535-0.474 0.029-0.813 0-1.626 0.018-2.436 0-0.226-0.185-0.612 0.226-0.657 0.359-0.041 0.783-0.176 1.057 0.264 0.226 0.375 0.504 0.727 0.903 1.285 0-0.476 0.025-0.756 0-1.030-0.052-0.452 0.145-0.555 0.564-0.555s0.598 0.095 0.583 0.546c-0.029 0.781 0 1.565-0.018 2.346 0 0.226 0.172 0.621-0.212 0.677s-0.786 0.19-1.070-0.226-0.542-0.772-0.946-1.355z"></path>
<path fill="#000" style="fill: var(--color1, #000)" d="M26.383 28.074c0-0.485 0.020-0.745 0-0.998-0.043-0.418 0.088-0.589 0.542-0.58 0.411 0 0.598 0.093 0.578 0.549-0.034 0.781 0 1.567-0.018 2.348 0 0.226 0.192 0.619-0.203 0.677-0.354 0.047-0.786 0.199-1.068-0.226-0.244-0.373-0.51-0.734-0.777-1.113-0.273 0.165-0.122 0.427-0.133 0.634-0.025 0.384 0.090 0.75-0.553 0.765-0.709 0.018-0.589-0.4-0.589-0.808 0-0.691-0.018-1.384 0-2.075 0-0.255-0.19-0.677 0.294-0.709 0.368-0.029 0.777-0.135 1.041 0.307 0.226 0.359 0.506 0.7 0.887 1.228z"></path>
<path fill="#000" style="fill: var(--color1, #000)" d="M6.473 26.387c-1.014 0.058-1.815 0.895-1.815 1.918 0 1.034 0.817 1.877 1.84 1.92l0.004 0c0.023 0.001 0.050 0.002 0.077 0.002 1.061 0 1.921-0.86 1.921-1.921s-0.86-1.921-1.921-1.921c-0.037 0-0.075 0.001-0.112 0.003l0.005-0zM6.582 29.056c-0.042 0.009-0.091 0.014-0.14 0.014-0.388 0-0.702-0.314-0.702-0.702 0-0.008 0-0.016 0-0.024l-0 0.001c-0.004-0.027-0.006-0.059-0.006-0.090 0-0.38 0.304-0.688 0.683-0.695h0.001c0.513-0.054 0.765 0.239 0.853 0.72-0.034 0.427-0.212 0.741-0.689 0.777z"></path>
<path fill="#000" style="fill: var(--color1, #000)" d="M21.546 26.387c-0.013-0-0.029-0.001-0.045-0.001-1.061 0-1.921 0.86-1.921 1.921s0.86 1.921 1.921 1.921c1.055 0 1.911-0.85 1.921-1.902v-0.001c-0.014-1.044-0.838-1.89-1.872-1.939l-0.004-0zM21.533 29.056c-0.027 0.004-0.058 0.006-0.090 0.006-0.374 0-0.677-0.303-0.677-0.677 0-0.033 0.002-0.066 0.007-0.098l-0 0.004c0-0.47 0.275-0.677 0.72-0.747 0.481 0.038 0.777 0.273 0.777 0.781 0.002 0.017 0.002 0.037 0.002 0.057 0 0.374-0.303 0.677-0.677 0.677-0.021 0-0.043-0.001-0.064-0.003l0.003 0z"></path>
<path fill="#000" style="fill: var(--color1, #000)" d="M14.642 27.66c0.352 0.436 1.24-0.348 1.285 0.573 0.054 1.052-1.048 0.084-1.307 0.691 0.226 0.208 0.499 0.104 0.743 0.099 0.409 0 0.677 0.018 0.677 0.562 0 0.601-0.359 0.503-0.713 0.51-1.937 0.041-1.937 0.043-1.937-1.806s0.336-2.113 2.244-1.788c0.406 0.068 0.379 0.298 0.386 0.571s-0.032 0.49-0.377 0.479c-0.068-0.005-0.146-0.008-0.226-0.008s-0.158 0.003-0.236 0.008l0.011-0.001c-0.178 0.016-0.37-0.077-0.549 0.108z"></path>
<path fill="#07b8e9" style="fill: var(--color2, #07b8e9)" d="M17.877 29.681c-0.226 0.097-0.303 0.621-0.693 0.271-0.226-0.205-0.585-0.404-0.156-0.761 0.047-0.036 0.077-0.092 0.077-0.155s-0.030-0.119-0.076-0.154l-0-0c-0.386-0.341-0.124-0.553 0.138-0.774 0.393-0.332 0.474 0.165 0.704 0.262 0.157 0.174 0.253 0.406 0.253 0.66 0 0.25-0.093 0.479-0.247 0.653l0.001-0.001z"></path>
<path fill="#ea6536" style="fill: var(--color3, #ea6536)" d="M17.877 29.681c0-0.438 0-0.874 0-1.312 0.199-0.117 0.264-0.542 0.619-0.294 0.251 0.178 0.452 0.4 0.226 0.743-0.056 0.084-0.106 0.248-0.065 0.309 0.174 0.246 0.255 0.465 0 0.702-0.332 0.305-0.522-0.095-0.779-0.149z"></path>
<path fill="#07c2f8" style="fill: var(--color4, #07c2f8)" d="M9.061 9.365c-2.237-0.079-3.012-1.129-2.935-3.971 1.181 1.237 1.948 2.644 2.935 3.971z"></path>
<path fill="#f86326" style="fill: var(--color5, #f86326)" d="M20.546 11.978c-0.104 1.653-1.517 1.969-2.671 2.54-0.542-0.205-0.266-0.571-0.172-0.903 0.613-0.718 1.266-1.362 1.97-1.948l0.026-0.021 0.020-0.023c0.226-0.382 0.562-0.989 0.903-0.829 0.424 0.196-0.045 0.77-0.077 1.183z"></path>
</symbol>
<symbol id="icon-logo-typo" viewBox="0 0 104 32">
<title>logo-typo</title>
<path fill="#000" style="fill: var(--color1, #000)" d="M30.431 16.649c0 1.833-0.081 2.815 0 3.783 0.147 1.525-0.821 1.4-1.84 1.466-1.166 0.059-1.796-0.147-1.745-1.54 0.095-2.632 0-5.271 0.059-7.91 0-0.733-0.601-1.979 0.733-2.126 1.166-0.132 2.537-0.572 3.424 0.858 0.733 1.217 1.642 2.353 2.932 4.164 0-1.547 0.081-2.456 0-3.343-0.161-1.466 0.477-1.796 1.84-1.803s1.943 0.308 1.884 1.774c-0.095 2.537 0 5.080-0.051 7.617 0 0.77 0.557 2.016-0.689 2.199s-2.559 0.616-3.475-0.733-1.759-2.507-3.072-4.406z"></path>
<path fill="#000" style="fill: var(--color1, #000)" d="M82.745 15.307c0-1.584 0.066-2.419 0-3.248-0.132-1.356 0.286-1.913 1.767-1.877 1.334 0 1.935 0.293 1.877 1.781-0.11 2.537 0 5.080-0.066 7.617 0 0.733 0.63 2.016-0.66 2.199-1.151 0.154-2.544 0.638-3.46-0.733-0.792-1.217-1.657-2.383-2.522-3.614-0.894 0.535-0.396 1.386-0.44 2.053-0.073 1.246 0.301 2.434-1.796 2.493-2.295 0.059-1.906-1.305-1.906-2.625 0-2.251-0.059-4.501 0-6.745 0-0.828-0.616-2.199 0.953-2.295 1.195-0.095 2.522-0.44 3.38 0.997 0.77 1.151 1.635 2.265 2.874 3.995z"></path>
<path fill="#000" style="fill: var(--color1, #000)" d="M18.108 9.831c-3.367 0.153-6.042 2.909-6.063 6.295v0.002c0.068 3.378 2.776 6.102 6.142 6.195l0.009 0c3.383-0.080 6.114-2.765 6.268-6.122l0-0.014c-0.041-3.494-2.862-6.315-6.352-6.356l-0.004-0zM18.46 18.496c-0.135 0.028-0.29 0.044-0.448 0.044-1.267 0-2.295-1.027-2.295-2.295 0-0.023 0-0.046 0.001-0.070l-0 0.003c-0.012-0.086-0.018-0.185-0.018-0.286 0-1.234 0.987-2.238 2.215-2.265l0.003-0c1.671-0.169 2.485 0.784 2.778 2.346-0.117 1.378-0.696 2.397-2.236 2.522z"></path>
<path fill="#000" style="fill: var(--color1, #000)" d="M67.050 9.831c-3.48 0.020-6.299 2.821-6.349 6.293l-0 0.005c0 3.442 2.79 6.231 6.231 6.231s6.231-2.79 6.231-6.231v0c-0.056-3.392-2.739-6.138-6.1-6.297l-0.014-0.001zM66.998 18.489c-0.092 0.014-0.198 0.021-0.306 0.021-1.215 0-2.199-0.985-2.199-2.199 0-0.106 0.007-0.21 0.022-0.312l-0.001 0.012c0-1.525 0.894-2.243 2.339-2.427 1.569 0.125 2.529 0.88 2.522 2.529 0.005 0.055 0.008 0.119 0.008 0.184 0 1.215-0.985 2.199-2.199 2.199-0.065 0-0.129-0.003-0.192-0.008l0.008 0.001z"></path>
<path fill="#000" style="fill: var(--color1, #000)" d="M44.631 13.929c1.144 1.415 4.017-1.122 4.171 1.862 0.176 3.416-3.402 0.279-4.245 2.243 0.733 0.682 1.62 0.345 2.412 0.33 1.327 0 2.199 0.059 2.199 1.825 0 1.95-1.173 1.628-2.324 1.657-6.283 0.132-6.283 0.132-6.283-5.865s1.092-6.862 7.287-5.806c1.312 0.227 1.232 0.968 1.246 1.855s-0.103 1.591-1.224 1.554c-0.219-0.016-0.475-0.025-0.733-0.025s-0.514 0.009-0.767 0.027l0.034-0.002c-0.579 0.081-1.202-0.227-1.774 0.345z"></path>
<path fill="#07b8e9" style="fill: var(--color2, #07b8e9)" d="M55.129 20.527c-0.733 0.315-0.982 2.023-2.251 0.88-0.733-0.66-1.899-1.312-0.498-2.463 0.152-0.116 0.249-0.298 0.249-0.502s-0.097-0.386-0.248-0.501l-0.002-0.001c-1.224-1.078-0.381-1.811 0.477-2.544 1.276-1.078 1.532 0.535 2.287 0.85 0.507 0.562 0.818 1.311 0.818 2.133 0 0.829-0.316 1.584-0.835 2.151l0.002-0.002z"></path>
<path fill="#ea6536" style="fill: var(--color3, #ea6536)" d="M55.129 20.527c0-1.415 0-2.837 0-4.252 0.638-0.389 0.858-1.767 2.001-0.953 0.821 0.579 1.466 1.29 0.733 2.405-0.183 0.279-0.345 0.814-0.205 1.012 0.557 0.792 0.828 1.503 0 2.28-1.078 0.975-1.693-0.315-2.529-0.491z"></path>
</symbol>
</defs>
</svg>
